<svg xmlns="http://www.w3.org/2000/svg" width="600" height="600"><path d="M283.317 63.523c-14.91 1.27-30.456 4.756-42.996 12.924-10.97 7.146-19.232 18.367-25.55 29.836-4.69 8.512-6.994 18.276-8.59 27.864-2.524 15.17-1.42 46.115-1.42 46.115l-5.408 8.87c-1.363 10.728.38 21.115.773 31.844.307 8.362 1.245 16.724 2.968 25.086l8.508 9.97s1.98 11.852 5.462 20.056c3.482 8.204 17.093 26.995 17.093 26.995-12.537 4.335-31.155 8.05-37.59 13.01-4.673 3.6-5.762 10.624-8.194 16.386L73.07 353.596 58.708 374.8v30.663L0 600h600l-18.415-62.086L559.03 411.63l-1.35-25.258-8.87-15.036-46.374-17.063L436.21 342.7c-7.067-7.292-16-17.43-21.202-21.878-5.19-4.436-28.664-10.925-42.996-16.387l-2.703-9.545s7.667-9.253 10.22-16.388c2.553-7.135 3.38-25.933 3.38-25.933l4.813 1.35 4.815-7.517 2.028-27.284s.397-32.342-1.352-36.155c-1.748-3.813-5.49-4.815-5.49-4.815s.997-29.564-2.704-43.672c-3.85-14.678-10.425-29.076-19.85-40.968-7.73-9.75-17.535-18.652-28.987-23.516-16.34-6.942-35.177-7.98-52.866-6.472zm-47.135 251.893l10.897 19.766 38.94 32.775 19.09 1.352 44.432-23.907 19.767-27.284-2.03 10.22-23.904 68.93-19.85 64.873-12.925 59.383-13.007 72.392-32.015-193.186-19.175-40.293zm84.65 145.366l-16.384 81.916-6.826 49.524-22.835-154.117 7.854-20.737 20.184-2-19.196-.322-12.317-25.607-6.625 5.297 17.92-23.38 24.573 1.365 26.964 31.743-15.646-13.05-14.73 23.63 16.382 34.815z" opacity=".5" fill="#999"/></svg>